<svg height="759" viewBox="-66 0 569 569" width="759"
  xmlns="http://www.w3.org/2000/svg">
  <path d="M0 66v494c0 5 4 9 10 9h360c5 0 9-4 9-9V161v-3-1l-2-2-95-95a9 9 0 0 0-6-3H10c-6 0-10 4-10 9zm347 86h-62V89zM19 76h247v85c0 5 4 10 9 10h85v379H19zm0 0"/>
  <path d="M398 493v19h29c5 0 9-4 9-9V9c0-5-4-9-9-9H66c-5 0-9 4-9 9v29h19V19h341v474zm0 0"/>
  <path d="M76 190h228v19H76zm0 0M76 133h76v19H76zm0 0M76 247h152v19H76zm0 0M247 247h57v19h-57zm0 0M76 303h228v19H76zm0 0M76 417h228v19H76zm0 0M161 360h143v19H161zm0 0M76 360h66v19H76zm0 0M76 474h38v19H76zm0 0M133 474h171v19H133zm0 0"/>
</svg>