<svg height="759" viewBox="-66 0 569 569" width="759" xmlns="http://www.w3.org/2000/svg"><path d="m0 66v494c0 5 4 9 10 9h360c5 0 9-4 9-9v-399-3-1l-2-2-95-95a9 9 0 0 0 -6-3h-266c-6 0-10 4-10 9zm347 86h-62v-63zm-328-76h247v85c0 5 4 10 9 10h85v379h-341zm0 0"/><path d="m398 493v19h29c5 0 9-4 9-9v-494c0-5-4-9-9-9h-361c-5 0-9 4-9 9v29h19v-19h341v474zm0 0"/><path d="m76 190h228v19h-228zm0-57h76v19h-76zm0 114h152v19h-152zm171 0h57v19h-57zm-171 56h228v19h-228zm0 114h228v19h-228zm85-57h143v19h-143zm-85 0h66v19h-66zm0 114h38v19h-38zm57 0h171v19h-171zm0 0"/></svg>