<svg fill="none" height="20" viewBox="0 0 20 20" width="20" xmlns="http://www.w3.org/2000/svg"><g fill="#000"><path d="m3.29685 9.81219c.32484 0 .57641.25041.57641.57681v7.8793h4.08743v-3.2174c0-.3019.25154-.5657.55562-.5657h2.95539c.3251 0 .5869.2638.5869.5657v3.2174h4.0772v-7.6177c0-.3041.2513-.5567.5764-.5567.3038 0 .5554.2526.5554.5567v8.1946c0 .304-.2516.5567-.5554.5567h-5.2405c-.3038 0-.5554-.2527-.5554-.5567v-3.2175h-1.82355v3.2175c0 .304-.25154.5567-.57644.5567h-5.21946c-.30389 0-.55539-.2527-.55539-.5567v-8.4561c0-.3264.2515-.57691.55539-.57691z"/><path d="m.163209 10.2616 4.548521-4.56795v-3.11458c0-.32422.26206-.57461.58693-.57461.30408 0 .55559.25043.55559.57461v1.97206l3.75204-3.774188c.11497-.116275.25154-.178889.38772-.178889.15719 0 .29359.064837.40869.178889l9.4221 9.422058c.2261.2258.241.588 0 .7959-.2095.2415-.5704.2259-.7964 0l-9.03439-9.01283-9.013347 9.09783c-.093889.0939-.230523.1476-.408726.1476-.15719 0-.293335-.0537-.408728-.1476-.209707-.2102-.2253607-.5903 0-.8183z"/></g></svg>