<?xml version="1.0" encoding="iso-8859-1"?>
<!-- Generator: Adobe Illustrator 19.0.0, SVG Export Plug-In . SVG Version: 6.00 Build 0)  -->
<svg version="1.1" id="Capa_1" xmlns="http://www.w3.org/2000/svg" xmlns:xlink="http://www.w3.org/1999/xlink" x="0px" y="0px"
	 viewBox="0 0 512.067 512.067" style="enable-background:new 0 0 512.067 512.067;" xml:space="preserve">
<g>
	<g>
		<path d="M509.44,135.073c-2.88-4.48-8-7.04-13.44-7.04H208c-6.4,0-12.16,3.84-14.72,9.6l-13.472,31.328l125.984,69.792
			l192.448-59.296l12.48-29.024C512.96,145.313,512.32,139.873,509.44,135.073z"/>
	</g>
</g>
<g>
	<g>
		<path d="M302.208,273.346l-135.104-74.848L97.28,361.633c-2.24,5.12-1.6,10.56,1.28,15.36c3.2,4.48,8,7.04,13.44,7.04h288
			c6.4,0,12.16-3.84,14.72-9.6l66.944-156.416L302.208,273.346z"/>
	</g>
</g>
<g>
	<g>
		<path d="M144,128.033H16c-8.832,0-16,7.168-16,16c0,8.832,7.168,16,16,16h128c8.832,0,16-7.168,16-16
			C160,135.201,152.832,128.033,144,128.033z"/>
	</g>
</g>
<g>
	<g>
		<path d="M102.72,224.033H16c-8.832,0-16,7.168-16,16c0,8.832,7.168,16,16,16h86.72c8.832,0,16-7.168,16-16
			C118.72,231.201,111.552,224.033,102.72,224.033z"/>
	</g>
</g>
<g>
	<g>
		<path d="M61.76,320.034H16c-8.832,0-16,7.168-16,16c0,8.832,7.168,16,16,16h45.76c8.864,0,16-7.168,16-16
			C77.76,327.201,70.592,320.034,61.76,320.034z"/>
	</g>
</g>
<g>
</g>
<g>
</g>
<g>
</g>
<g>
</g>
<g>
</g>
<g>
</g>
<g>
</g>
<g>
</g>
<g>
</g>
<g>
</g>
<g>
</g>
<g>
</g>
<g>
</g>
<g>
</g>
<g>
</g>
</svg>
